Coordinates
version=1
nRows=17
nColumns=36
inDegrees=yes

Units are S.I. units (second, meters, Newtons, ...)
If the header above contains a line with 'inDegrees', this indicates whether rotational values are in degrees (yes) or radians (no).

endheader
time	pelvis_tilt	pelvis_list	pelvis_rotation	pelvis_tx	pelvis_ty	pelvis_tz	hip_flexion_r	hip_adduction_r	hip_rotation_r	knee_angle_r	knee_angle_r_beta	ankle_angle_r	subtalar_angle_r	mtp_angle_r	hip_flexion_l	hip_adduction_l	hip_rotation_l	knee_angle_l	knee_angle_l_beta	ankle_angle_l	subtalar_angle_l	mtp_angle_l	lumbar_extension	lumbar_bending	lumbar_rotation	arm_flex_r	arm_add_r	arm_rot_r	elbow_flex_r	pro_sup_r	arm_flex_l	arm_add_l	arm_rot_l	elbow_flex_l	pro_sup_l
     29.83333330	      5.54130903	     -8.22236670	     -2.08455672	      0.80583191	      1.03233629	      0.72961063	     10.65590718	     10.45652473	      1.09529315	     18.32350365	      0.31980547	      7.39656140	     -6.28596471	     -7.49999987	     -4.94159505	    -12.46978398	     -3.03729500	     50.67173674	      0.88438864	      9.74072443	     -4.17944719	     -7.49999987	    -15.75784248	      9.33853733	      4.52963931	      4.42002100	    -18.11140364	     11.07235954	     23.02869875	     89.98480403	     11.17269098	    -11.51887123	     16.49941389	     24.05944183	     89.63250870
     29.85000000	      5.78617472	     -8.61620468	     -1.95239667	      0.80406643	      1.03473020	      0.73041278	      8.64535454	     10.96549317	      1.05638375	     17.31004425	      0.30211727	      8.36212518	     -5.55545893	     -7.49999987	     -1.59172518	    -13.18689243	     -1.96206987	     56.23320830	      0.98145463	      7.44725576	     -6.07276057	     -7.49999987	    -15.95096814	      9.96415357	      4.75150253	      5.20072055	    -18.57788056	     12.20724164	     23.50589697	     89.36727263	     10.80572519	    -10.89374020	     17.20139743	     22.32650992	     89.52798597
     29.86666670	      6.32990950	     -8.63441415	     -1.85209437	      0.80108473	      1.03665213	      0.73000705	      6.22836290	     11.08146444	      1.26388491	     15.90691128	      0.27762798	      8.80395125	     -4.97544029	     -7.49999987	      1.39455463	    -13.33024256	     -1.19661902	     60.73720386	      1.06006419	      6.19008057	     -7.05961449	     -7.49999987	    -16.79099576	     10.07743677	      5.29004569	      5.79461014	    -19.15137075	     12.78145249	     24.79176929	     88.96307773	     10.59260284	    -10.57571708	     18.43977563	     21.46902887	     90.22215932
     29.88333330	      6.95352018	     -8.33143334	     -1.60910160	      0.79870542	      1.03879895	      0.72951690	      3.74654589	     10.79881562	      1.30843107	     14.29963992	      0.24957580	      9.00642711	     -4.09690759	     -7.49999987	      4.22203317	    -12.95249194	     -0.50111923	     64.23115321	      1.12104511	      5.40716461	     -7.68220700	     -7.49999987	    -17.89913221	      9.81728026	      6.06917553	      5.71885745	    -19.59546608	     11.08220007	     27.03086723	     89.32041594	     10.68326320	    -10.23578727	     19.55110929	     20.65870462	     92.74321938
     29.90000000	      7.55205690	     -7.80049603	     -1.26052531	      0.79769363	      1.04144617	      0.72987434	      1.33779391	     10.24060011	      1.06239856	     12.65694437	      0.22090535	      9.07689628	     -2.93143771	     -7.49999987	      6.87450064	    -12.22328609	      0.06916622	     66.76820897	      1.16532508	      4.90476870	     -8.01004957	     -7.49999987	    -18.84899029	      9.40854572	      5.85490492	      6.56801592	    -19.81587127	     10.65021196	     28.26425950	     88.14785299	     10.05566752	    -10.14625955	     19.37158640	     20.31558329	     91.77748916
     29.91666670	      8.02767274	     -7.12490468	     -1.17779928	      0.79702654	      1.04300059	      0.73139826	     -0.89342238	      9.56992025	      1.42282469	     11.12669813	      0.19419752	      8.85744151	     -2.45036957	     -7.49999987	      9.24243219	    -11.34270485	      0.12854004	     68.14232581	      1.18930795	      4.77595974	     -8.08520374	     -7.49999987	    -19.71866980	      8.76457006	      6.02002302	      7.04973438	    -20.03996293	      9.93838471	     29.81589022	     87.96283176	      9.71765776	    -10.06596768	     19.98386414	     19.74744299	     92.27815394
     29.93333330	      8.61587256	     -6.42093962	     -1.01099194	      0.79552194	      1.04333999	      0.73355602	     -3.14488341	      8.85701324	      1.65802671	      9.81722013	      0.17134281	      8.67008636	     -1.92243069	     -7.49999987	     11.12781921	    -10.41155166	      0.10548279	     68.40566263	      1.19390404	      4.90893817	     -8.12479189	     -7.49999987	    -20.72229073	      8.12594960	      5.68161590	      7.72274855	    -20.21757638	      9.65854625	     31.55554736	     85.35644291	      8.74374240	    -10.30626403	     20.08828697	     20.21114831	     89.56809537
     29.95000000	      8.75703990	     -5.76170607	     -0.92191021	      0.79337311	      1.04302759	      0.73610870	     -4.65402375	      8.19370320	      1.87522870	      8.99777590	      0.15704081	      8.69495424	     -1.40666753	     -7.49999987	     13.03770353	     -9.56985963	     -0.09003349	     67.52909039	      1.17860497	      5.44842886	     -8.13141523	     -7.49999987	    -20.97526012	      7.45515195	      5.81946461	      8.21384602	    -20.32746750	      8.59679795	     32.23899650	     87.70435885	      8.66994670	    -10.11695016	     21.02122143	     18.65867848	     92.69780336
     29.96666670	      8.99623052	     -5.13474915	     -0.78730519	      0.79126061	      1.04417859	      0.73850411	     -6.10229849	      7.58860176	      2.16578137	      8.43438790	      0.14720784	      8.70304072	     -1.20512528	     -7.49999987	     14.24009877	     -8.76107020	     -0.33855701	     65.25720585	      1.13895310	      6.41915730	     -8.02738855	     -7.49999987	    -21.43994744	      6.80436033	      5.42420412	      9.25156505	    -20.41916284	      9.14886675	     32.86417548	     85.69916734	      7.98633628	    -10.23041984	     21.78922033	     18.25968331	     90.68143923
     29.98333330	      9.20545251	     -4.56284977	     -0.66590776	      0.78963735	      1.04601059	      0.74041319	     -7.36965424	      7.04281385	      2.50720270	      8.10185098	      0.14140398	      8.83839058	     -1.23452079	     -7.49999987	     14.89471855	     -8.03413954	     -0.68806715	     61.75959967	      1.07790836	      7.52533357	     -8.09574826	     -7.49999987	    -21.90892548	      6.18904248	      4.96540599	     10.40244515	    -20.53898560	      9.58908184	     33.49608371	     84.37059861	      7.28456113	    -10.37392577	     22.34812610	     18.03226552	     89.44491616
     30.00000000	      9.26848879	     -4.09531939	     -0.58628091	      0.78878380	      1.04746869	      0.74115240	     -8.37804386	      6.58013619	      2.77160210	      7.95426881	      0.13882818	      8.87900075	     -1.41682148	     -7.49999987	     15.22042067	     -7.37818646	     -0.99554955	     57.37474242	      1.00137816	      8.28849745	     -8.31348798	     -7.49999987	    -22.17169567	      5.66428880	      4.68192067	     11.15929389	    -20.65365509	      9.44830315	     34.30435395	     84.42791257	      6.54457121	    -10.39461998	     22.46113050	     17.83475779	     89.69085051
     30.01666670	      9.30960636	     -3.68025317	     -0.52319414	      0.78810568	      1.04812102	      0.74019761	     -9.36295909	      6.14104347	      2.94643435	      7.78415854	      0.13585920	      8.87995624	     -1.54076968	     -7.49999987	     15.25430110	     -6.74197595	     -1.21689891	     52.46938182	      0.91576347	      8.58408195	     -8.64751356	     -7.49999987	    -22.44012595	      5.16449372	      4.48515889	     11.78620366	    -20.74525647	      9.20284173	     35.02287871	     84.42615303	      5.90243838	    -10.33730413	     22.41495210	     17.76920061	     89.89634865
     30.03333330	      9.29609589	     -3.34990369	     -0.49616156	      0.78724889	      1.04798256	      0.73843972	    -10.34082489	      5.74809408	      3.03082659	      7.54120727	      0.13161890	      8.98447311	     -1.53376168	     -7.49999987	     15.16253091	     -6.16776325	     -1.33135074	     47.26655896	      0.82495708	      8.47701314	     -8.89356256	     -7.49999987	    -22.67353117	      4.77494121	      4.36299273	     12.12814877	    -20.89332719	      8.51446750	     36.15041422	     84.33179989	      5.11672647	    -10.25400429	     21.68446840	     18.38607070	     90.24797885
     30.05000000	      9.25331853	     -3.10345913	     -0.44008577	      0.78625845	      1.04699214	      0.73760765	    -11.33953327	      5.41209477	      2.82286720	      7.27872313	      0.12703768	      9.43340746	     -1.07901344	     -7.49999987	     15.03458896	     -5.63835129	     -1.27204442	     41.92858181	      0.73179180	      8.20952325	     -8.85058723	     -7.49999987	    -22.82768445	      4.49391954	      4.27174162	     12.41462683	    -21.12079621	      8.11726517	     37.04093741	     83.50972440	      4.47047253	    -10.08887274	     21.27159077	     18.87918746	     89.40580710
     30.06666670	      9.00501008	     -2.96191458	     -0.73234314	      0.78496095	      1.04584562	      0.73897993	    -12.11391537	      5.15377216	      3.27426626	      7.11223622	      0.12413194	      9.98509134	     -1.38051290	     -7.49999987	     15.05556476	     -5.32721313	     -1.51049072	     36.58598429	      0.63854589	      7.92305223	     -8.39608170	     -7.49999987	    -22.68415844	      4.21573786	      4.48592865	     12.57983453	    -21.37214444	      7.83671871	     37.80740367	     83.07171336	      3.94048224	     -9.77002052	     20.86664022	     18.93216570	     89.03060895
     30.08333330	      8.65315684	     -2.95162528	     -0.84746184	      0.78342146	      1.04419647	      0.74093396	    -12.81845156	      5.08311229	      3.43666092	      6.96220349	      0.12151337	     10.87436648	     -1.56511907	     -7.49999987	     15.35828915	     -5.10836984	     -1.42247989	     31.48201150	      0.54946476	      7.63250697	     -7.62805279	     -7.49999987	    -22.37306241	      4.15746080	      4.58931805	     12.56525166	    -21.61257030	      7.44851712	     38.70323681	     82.91059774	      3.74554347	     -9.18606687	     20.21526583	     18.14021388	     89.17351828
     30.10000000	      8.42608449	     -2.97173134	     -0.97978203	      0.78253570	      1.04107280	      0.74217523	    -13.67839798	      5.03406228	      3.33493732	      6.87249771	      0.11994771	     12.04806846	     -1.22299393	     -7.49999987	     15.53817802	     -4.93200379	     -1.21891633	     26.35068424	      0.45990620	      7.23779574	     -6.82409247	     -7.49999987	    -22.22419067	      4.06539778	      4.66281721	     12.52503562	    -21.89112707	      7.18942294	     39.50460356	     82.56085832	      3.24215875	     -8.96937659	     19.83785063	     18.45228367	     88.93815616
